<svg id="eI752fUsrbc1" xmlns="http://www.w3.org/2000/svg" xmlns:xlink="http://www.w3.org/1999/xlink"
    viewBox="0 0 2000 2000" shape-rendering="geometricPrecision" text-rendering="geometricPrecision"
    project-id="8d7acede67f64a21b999fb3154448635" export-id="10d636b0651e4d8496d0aa5e4882a861"
    cached="true">
    <style><![CDATA[
svg[viewBox="0 0 2000 2000"] #eI752fUsrbc5_to {animation: eI752fUsrbc5_to__to 2272.7272727272725ms linear 1 normal forwards}@keyframes eI752fUsrbc5_to__to { 0% {transform: translate(197.793828px,246.569328px)} 100% {transform: translate(214.255997px,175.580894px)}} svg[viewBox="0 0 2000 2000"] #eI752fUsrbc5 {animation: eI752fUsrbc5_c_o 2272.7272727272725ms linear 1 normal forwards}@keyframes eI752fUsrbc5_c_o { 0% {opacity: 0} 100% {opacity: 1}} svg[viewBox="0 0 2000 2000"] #eI752fUsrbc6_to {animation: eI752fUsrbc6_to__to 2272.7272727272725ms linear 1 normal forwards}@keyframes eI752fUsrbc6_to__to { 0% {transform: translate(139.286984px,241.993965px)} 100% {transform: translate(155.749153px,171.005531px)}} svg[viewBox="0 0 2000 2000"] #eI752fUsrbc7_to {animation: eI752fUsrbc7_to__to 2272.7272727272725ms linear 1 normal forwards}@keyframes eI752fUsrbc7_to__to { 0% {transform: translate(-10.227567px,129.915504px)} 100% {transform: translate(23.4456px,-11.8017px)}} svg[viewBox="0 0 2000 2000"] #eI752fUsrbc9_to {animation: eI752fUsrbc9_to__to 2272.7272727272725ms linear 1 normal forwards}@keyframes eI752fUsrbc9_to__to { 0% {transform: translate(197.793813px,246.569369px)} 100% {transform: translate(231.46698px,104.852165px)}} svg[viewBox="0 0 2000 2000"] #eI752fUsrbc9 {animation: eI752fUsrbc9_c_o 2272.7272727272725ms linear 1 normal forwards}@keyframes eI752fUsrbc9_c_o { 0% {opacity: 0} 100% {opacity: 1}} svg[viewBox="0 0 2000 2000"] #mask-blue-anim {animation: eI752fUsrbc6_to__to 2272.7272727272725ms linear 1 normal forwards} svg[viewBox="0 0 2000 2000"] #mask-gray-anim {animation: eI752fUsrbc7_to__to 2272.7272727272725ms linear 1 normal forwards}   ]]></style>
    <g>
        <g transform="matrix(6.72006 0 0 6.72006 -48.7974 -150.251)">
            <defs>
                <mask id="shadow-mask" maskUnits="userSpaceOnUse" x="-100" y="-100" width="600" height="600">
                    <path d="M139.15519,173.03037c-3.1309.0244-6.25652.75209-8.64554,2.17547-28.31324,16.75498-56.446303,33.79269-84.61187,50.78132-14.033371,8.36116-17.195673,23.10668-7.098492,30.41494c1.2795.81021,2.616744,1.64059,4.004388,2.49073l98.209654,51.82312.4593.24218l65.2184-38.0604l30.02869-17.35372c3.29023-2.09579,5.67617-4.52351,7.15486-7.10475c3.95933-6.91151,1.41436-14.92487-7.68934-20.62319l-40.57203-25.39588c-1.18249-.74016-2.43274-1.41438-3.73923-2.02307h-.002l-44.03985-25.32698c-2.40972-1.38587-5.54592-2.06413-8.67686-2.03977Z" fill="white" />
                    <g id="mask-blue-anim" transform="translate(139.286984,241.993965)">
                        <path d="M155.61736,102.04195c-3.1309.0244-6.25652.7521-8.64554,2.17548-28.31324,16.75498-56.446302,33.79269-84.611875,50.78133-14.033369,8.36115-17.195669,23.10667-7.098487,30.41492c1.279492.81021,2.616742,1.64059,4.004382,2.49074l98.20966,51.82313.45931.24218l65.21839-38.06042l30.02869-17.35371c3.29023-2.09579,5.67617-4.52351,7.15486-7.10474c3.95933-6.91151,1.41437-14.92488-7.68933-20.6232l-40.57203-25.39588c-1.1825-.74017-2.43275-1.41437-3.73924-2.02307h-.002L164.2943,104.08173c-2.40972-1.38588-5.54592-2.06414-8.67686-2.03978Z" transform="translate(-155.749153,-171.005531)" fill="white" />
                    </g>
                    <g id="mask-gray-anim" transform="translate(-10.227567,129.915504)">
                        <g transform="scale(1.06895,1.06895)">
                            <path d="M139.64648,40.392578c-2.92895.0228-5.85296.703585-8.08789,2.035156-26.487,15.674257-52.805439,31.613014-79.154293,47.50586-13.128198,7.82185-16.086525,21.616266-6.640625,28.453126c1.196963.75795,2.447959,1.53477,3.746094,2.33008l91.875004,48.48047.42968.22656l61.01172-35.60547l28.0918-16.23438c3.07801-1.96061,5.31005-4.23174,6.69336-6.64648c3.70395-6.46571,1.32314-13.962195-7.19336-19.292969L192.46289,67.886719c-1.10622-.692423-2.27583-1.323144-3.49805-1.892578h-.002l-41.19922-23.69336c-2.25429-1.296485-5.1882-1.930994-8.11719-1.908203Z" fill="white" />
                        </g>
                    </g>
                </mask>
            </defs>
            <path
                d="M139.15519,173.03037c-3.1309.0244-6.25652.75209-8.64554,2.17547-28.31324,16.75498-56.446303,33.79269-84.61187,50.78132-14.033371,8.36116-17.195673,23.10668-7.098492,30.41494c1.2795.81021,2.616744,1.64059,4.004388,2.49073l98.209654,51.82312.4593.24218l65.2184-38.0604l30.02869-17.35372c3.29023-2.09579,5.67617-4.52351,7.15486-7.10475c3.95933-6.91151,1.41436-14.92487-7.68934-20.62319l-40.57203-25.39588c-1.18249-.74016-2.43274-1.41438-3.73923-2.02307h-.002l-44.03985-25.32698c-2.40972-1.38587-5.54592-2.06413-8.67686-2.03977Z"
                fill="#800080" stroke-width="32.4864" />
            <g mask="url(#shadow-mask)"><g id="eI752fUsrbc5_to" transform="translate(197.793828,246.569328)">
                <path id="eI752fUsrbc5"
                    d="M236.311,146.733l16.229,10.158c9.1037,5.69833,11.64854,13.7118,7.6892,20.62331c-1.47868,2.58123,-3.86448,5.00892,-7.15471,7.10471l-30.02874,17.35388l-65.00301,37.93475l7.75982,4.09456l.45951,.2421l65.21838,-38.06059l30.02874,-17.35359c3.29023,-2.0958,5.67602,-4.5235,7.1547,-7.10473c3.95934,-6.91151,1.4145,-14.92498,-7.6892,-20.6233l-16.229,-10.158Z"
                    transform="translate(-214.255997,-175.580894)" opacity="0" fill="#fff"
                    stroke-width="32.4864" />
            </g></g>
            <g id="eI752fUsrbc6_to" transform="translate(139.286984,241.993965)">
                <path
                    d="M155.61736,102.04195c-3.1309.0244-6.25652.7521-8.64554,2.17548-28.31324,16.75498-56.446302,33.79269-84.611875,50.78133-14.033369,8.36115-17.195669,23.10667-7.098487,30.41492c1.279492.81021,2.616742,1.64059,4.004382,2.49074l98.20966,51.82313.45931.24218l65.21839-38.06042l30.02869-17.35371c3.29023-2.09579,5.67617-4.52351,7.15486-7.10474c3.95933-6.91151,1.41437-14.92488-7.68933-20.6232l-40.57203-25.39588c-1.1825-.74017-2.43275-1.41437-3.73924-2.02307h-.002L164.2943,104.08173c-2.40972-1.38588-5.54592-2.06414-8.67686-2.03978Z"
                    transform="translate(-155.749153,-171.005531)" fill="#3c85f4"
                    fill-opacity="0.763723" stroke-width="32.4864" />
            </g>
            <g id="eI752fUsrbc7_to" transform="translate(-10.227567,129.915504)">
                <g transform="scale(1.06895,1.06895) translate(0,0)">
                    <path
                        d="M139.64648,40.392578c-2.92895.0228-5.85296.703585-8.08789,2.035156-26.487,15.674257-52.805439,31.613014-79.154293,47.50586-13.128198,7.82185-16.086525,21.616266-6.640625,28.453126c1.196963.75795,2.447959,1.53477,3.746094,2.33008l91.875004,48.48047.42968.22656l61.01172-35.60547l28.0918-16.23438c3.07801-1.96061,5.31005-4.23174,6.69336-6.64648c3.70395-6.46571,1.32314-13.962195-7.19336-19.292969L192.46289,67.886719c-1.10622-.692423-2.27583-1.323144-3.49805-1.892578h-.002l-41.19922-23.69336c-2.25429-1.296485-5.1882-1.930994-8.11719-1.908203Z"
                        fill="#ccc" fill-opacity="0.840095" stroke-width="30.391" />
                </g>
            </g>
            <g mask="url(#shadow-mask)"><g id="eI752fUsrbc9_to" transform="translate(197.793813,246.569369)">
                <path id="eI752fUsrbc9"
                    d="M253.521,76.004l16.229,10.158c9.1037,5.698323,11.64854,13.711795,7.68921,20.623305c-1.47869,2.58123,-3.86449,5.00892,-7.15472,7.10471l-30.02873,17.35388l-65.00301,37.93475l7.75981,4.09456l.45951,.2421l65.21838,-38.06059L278.7198,118.1006c3.29023,-2.09579,5.67602,-4.52349,7.15471,-7.10473c3.95933,-6.91151,1.41449,-14.924979,-7.68921,-20.623299L261.956,80.215Z"
                    transform="translate(-231.46698,-104.852165)" opacity="0" fill="#fff"
                    stroke-width="32.4864" />
            </g></g>
        </g>
    </g>
</svg>