<?xml version="1.0" encoding="UTF-8" standalone="no"?>
<!-- Created with Inkscape (http://www.inkscape.org/) -->

<svg
   version="1.1"
   id="svg1"
   width="2000"
   height="2000"
   viewBox="0 0 2000 2000"
   sodipodi:docname="VenusLibraryManager.svg"
   inkscape:export-filename="VenusLibraryManager.png"
   inkscape:export-xdpi="283.18585"
   inkscape:export-ydpi="283.18585"
   inkscape:version="1.4.3 (0d15f75, 2025-12-25)"
   xml:space="preserve"
   xmlns:inkscape="http://www.inkscape.org/namespaces/inkscape"
   xmlns:sodipodi="http://sodipodi.sourceforge.net/DTD/sodipodi-0.dtd"
   xmlns="http://www.w3.org/2000/svg"
   xmlns:svg="http://www.w3.org/2000/svg"><defs
     id="defs1"><inkscape:path-effect
       effect="fillet_chamfer"
       id="path-effect11"
       is_visible="true"
       lpeversion="1"
       nodesatellites_param="F,0,0,1,0,0,0,1 @ F,0,0,1,0,0,0,1 @ F,0,0,1,0,0,0,1 @ F,0,0,1,0,0,0,1 @ F,0,0,1,0,0,0,1 @ F,0,0,1,0,0,0,1 @ F,0,0,1,0,0,0,1 @ F,0,0,1,0,0,0,1 @ F,0,0,1,0,0,0,1 @ F,0,0,1,0,0,0,1 @ F,0,0,1,0,0,0,1 @ F,0,0,1,0,0,0,1"
       radius="0"
       unit="px"
       method="auto"
       mode="F"
       chamfer_steps="1"
       flexible="false"
       use_knot_distance="true"
       apply_no_radius="true"
       apply_with_radius="true"
       only_selected="false"
       hide_knots="false" /></defs><sodipodi:namedview
     id="namedview1"
     pagecolor="#ffffff"
     bordercolor="#000000"
     borderopacity="0.25"
     inkscape:showpageshadow="2"
     inkscape:pageopacity="0.0"
     inkscape:pagecheckerboard="0"
     inkscape:deskcolor="#d1d1d1"
     inkscape:zoom="0.1767767"
     inkscape:cx="1756.4532"
     inkscape:cy="1784.7375"
     inkscape:window-width="1920"
     inkscape:window-height="991"
     inkscape:window-x="-9"
     inkscape:window-y="-9"
     inkscape:window-maximized="1"
     inkscape:current-layer="g1" /><g
     inkscape:groupmode="layer"
     inkscape:label="Image"
     id="g1"><g
       id="g28"
       transform="translate(16)" /><g
       id="g36"
       transform="matrix(6.7200608,0,0,6.7200608,-48.797395,-150.25058)"><path
         id="path17-2"
         style="fill:#2649e1;fill-opacity:1;stroke-width:30.391"
         d="m 140.24614,172.91016 c -2.92895,0.0228 -5.85296,0.70358 -8.08789,2.03515 -26.487,15.67426 -52.80544,31.61302 -79.15429,47.50586 -13.1282,7.82185 -16.08653,21.61627 -6.64063,28.45313 1.19697,0.75795 2.44796,1.53477 3.7461,2.33008 l 91.875,48.48046 0.42968,0.22656 61.01172,-35.60546 28.0918,-16.23438 c 3.07801,-1.96061 5.31005,-4.23174 6.69336,-6.64648 3.70395,-6.46571 1.32314,-13.9622 -7.19336,-19.29297 L 193.06255,200.4043 c -1.10622,-0.69242 -2.27583,-1.32315 -3.49805,-1.89258 h -0.002 l -41.19922,-23.69336 c -2.25429,-1.29648 -5.1882,-1.93099 -8.11719,-1.9082 z" /><path
         id="path17-7"
         style="fill:#3c85f4;fill-opacity:0.763723;stroke-width:30.391"
         d="m 139.64648,106.50059 c -2.92895,0.0228 -5.85296,0.70359 -8.08789,2.03516 -26.487,15.67426 -52.80544,31.61301 -79.154297,47.50586 -13.128198,7.82185 -16.086525,21.61626 -6.640625,28.45312 1.196963,0.75795 2.447959,1.53477 3.746094,2.33008 l 91.875008,48.48047 0.42968,0.22656 61.01172,-35.60547 28.0918,-16.23437 c 3.07801,-1.96061 5.31005,-4.23174 6.69336,-6.64648 3.70395,-6.46571 1.32314,-13.9622 -7.19336,-19.29297 l -37.95508,-23.75782 c -1.10622,-0.69242 -2.27583,-1.32314 -3.49805,-1.89257 h -0.002 L 147.76362,108.4088 c -2.25429,-1.29649 -5.1882,-1.931 -8.11719,-1.90821 z"
         transform="translate(16)" /><path
         d="m 195.99805,212.25781 -6.90039,-4.32031 -47.18164,27.53516 7.25781,3.83007 z"
         style="fill:#ffffff;fill-opacity:1;stroke-width:16.9073"
         id="path35"
         transform="translate(16)" /><path
         d="m 211.9375,146.18555 -6.90039,-4.32032 -47.01953,27.44141 7.25781,3.83008 z"
         style="fill:#ffffff;fill-opacity:1;stroke-width:16.9073"
         id="path31"
         transform="translate(16)" /><g
         id="g27"
         transform="translate(32)"><path
           id="path17"
           style="fill:#a6e4fd;fill-opacity:0.840095;stroke-width:30.391"
           d="m 139.64648,40.392578 c -2.92895,0.0228 -5.85296,0.703585 -8.08789,2.035156 -26.487,15.674257 -52.805439,31.613014 -79.154293,47.50586 -13.128198,7.82185 -16.086525,21.616266 -6.640625,28.453126 1.196963,0.75795 2.447959,1.53477 3.746094,2.33008 l 91.875004,48.48047 0.42968,0.22656 61.01172,-35.60547 28.0918,-16.23438 c 3.07801,-1.96061 5.31005,-4.23174 6.69336,-6.64648 3.70395,-6.46571 1.32314,-13.962195 -7.19336,-19.292969 L 192.46289,67.886719 c -1.10622,-0.692423 -2.27583,-1.323144 -3.49805,-1.892578 h -0.002 l -41.19922,-23.69336 c -2.25429,-1.296485 -5.1882,-1.930994 -8.11719,-1.908203 z" /></g></g></g></svg>
